<svg width="1000" height="1000" viewBox="0 0 1000 1000" fill="none" xmlns="http://www.w3.org/2000/svg">
<rect width="1000" height="1000" fill="#FFD735"/>
<path d="M620.62 499.81C620.62 575.453 628.805 643.634 641.875 692.647C648.426 717.215 656.081 736.485 664.231 749.412C672.649 762.764 680.107 767.12 685.669 767.12C691.231 767.12 698.689 762.764 707.107 749.412C715.257 736.485 722.912 717.215 729.463 692.647C742.533 643.634 750.718 575.453 750.718 499.81C750.718 424.167 742.533 355.985 729.463 306.973C722.912 282.405 715.257 263.135 707.107 250.208C698.689 236.856 691.231 232.5 685.669 232.5C680.107 232.5 672.649 236.856 664.231 250.208C656.081 263.135 648.426 282.405 641.875 306.973C628.805 355.985 620.62 424.167 620.62 499.81Z" stroke="white" stroke-width="17"/>
<path d="M464.217 499.217C464.217 552.686 471.453 600.782 482.942 635.251C488.7 652.525 495.391 665.963 502.457 674.928C509.589 683.978 516.237 687.453 521.963 687.453C527.688 687.453 534.336 683.978 541.469 674.928C548.534 665.963 555.225 652.525 560.983 635.251C572.473 600.782 579.708 552.686 579.708 499.217C579.708 445.747 572.473 397.651 560.983 363.182C555.225 345.908 548.534 332.47 541.469 323.505C534.336 314.455 527.688 310.981 521.963 310.981C516.237 310.981 509.589 314.455 502.457 323.505C495.391 332.47 488.7 345.908 482.942 363.182C471.453 397.651 464.217 445.747 464.217 499.217Z" stroke="white" stroke-width="15"/>
<path d="M351.393 499.81C351.393 531.648 356.118 560.253 363.598 580.718C367.345 590.971 371.688 598.917 376.26 604.207C380.843 609.511 385.198 611.658 389.099 611.658C393.001 611.658 397.356 609.511 401.939 604.207C406.51 598.917 410.854 590.971 414.601 580.718C422.081 560.253 426.805 531.648 426.805 499.81C426.805 467.972 422.081 439.367 414.601 418.902C410.854 408.649 406.51 400.703 401.939 395.413C397.356 390.109 393.001 387.961 389.099 387.961C385.198 387.961 380.843 390.109 376.26 395.413C371.688 400.703 367.345 408.649 363.598 418.902C356.118 439.367 351.393 467.972 351.393 499.81Z" stroke="white" stroke-width="10"/>
<path d="M-4.78547e-05 499.81C235.144 500.285 631.925 543.109 732.082 543.109C832.24 543.109 913.435 523.723 913.435 499.81C913.435 475.896 832.24 456.511 732.082 456.511C631.925 456.511 233.935 500.282 -4.78547e-05 499.81Z" fill="white"/>
</svg>
