<svg width="2601" height="879" viewBox="0 0 2601 879" fill="none" xmlns="http://www.w3.org/2000/svg">
<rect width="2601" height="879" fill="#FFD735"/>
<path d="M693.62 439.81C693.62 515.453 701.805 583.634 714.875 632.647C721.426 657.215 729.081 676.485 737.231 689.412C745.649 702.764 753.107 707.12 758.669 707.12C764.231 707.12 771.689 702.764 780.107 689.412C788.257 676.485 795.912 657.215 802.463 632.647C815.533 583.634 823.718 515.453 823.718 439.81C823.718 364.167 815.533 295.985 802.463 246.973C795.912 222.405 788.257 203.135 780.107 190.208C771.689 176.856 764.231 172.5 758.669 172.5C753.107 172.5 745.649 176.856 737.231 190.208C729.081 203.135 721.426 222.405 714.875 246.973C701.805 295.985 693.62 364.167 693.62 439.81Z" stroke="white" stroke-width="17"/>
<path d="M537.217 439.216C537.217 492.686 544.453 540.782 555.942 575.251C561.7 592.525 568.391 605.963 575.457 614.928C582.589 623.978 589.237 627.452 594.963 627.452C600.688 627.452 607.336 623.978 614.469 614.928C621.534 605.963 628.225 592.525 633.983 575.251C645.473 540.782 652.708 492.686 652.708 439.216C652.708 385.747 645.473 337.651 633.983 303.182C628.225 285.908 621.534 272.47 614.469 263.505C607.336 254.455 600.688 250.98 594.963 250.98C589.237 250.98 582.589 254.455 575.457 263.505C568.391 272.47 561.7 285.908 555.942 303.182C544.453 337.651 537.217 385.747 537.217 439.216Z" stroke="white" stroke-width="15"/>
<path d="M424.393 439.81C424.393 471.648 429.118 500.253 436.598 520.718C440.345 530.971 444.688 538.917 449.26 544.207C453.843 549.511 458.198 551.658 462.099 551.658C466.001 551.658 470.356 549.511 474.939 544.207C479.51 538.917 483.854 530.971 487.601 520.718C495.081 500.253 499.805 471.648 499.805 439.81C499.805 407.972 495.081 379.367 487.601 358.902C483.854 348.649 479.51 340.703 474.939 335.413C470.356 330.109 466.001 327.961 462.099 327.961C458.198 327.961 453.843 330.109 449.26 335.413C444.688 340.703 440.345 348.649 436.598 358.902C429.118 379.367 424.393 407.972 424.393 439.81Z" stroke="white" stroke-width="10"/>
<path d="M73 439.81C308.144 440.285 704.925 483.109 805.082 483.109C905.24 483.109 986.435 463.723 986.435 439.81C986.435 415.896 905.24 396.511 805.082 396.511C704.925 396.511 306.935 440.282 73 439.81Z" fill="white"/>
<path d="M1249.08 554.84C1236.49 554.84 1225.4 553.56 1215.8 551C1206.41 548.227 1198.31 544.493 1191.48 539.8C1184.65 535.107 1179 529.88 1174.52 524.12C1170.25 518.36 1166.95 512.28 1164.6 505.88L1183.8 498.52C1187.43 508.547 1194.57 517.4 1205.24 525.08C1215.91 532.547 1228.92 536.28 1244.28 536.28C1263.91 536.28 1279.16 532.547 1290.04 525.08C1300.92 517.4 1306.36 507.373 1306.36 495C1306.36 483.053 1301.35 473.56 1291.32 466.52C1281.29 459.267 1268.28 453.613 1252.28 449.56L1229.56 443.8C1219.75 441.24 1210.57 437.613 1202.04 432.92C1193.72 428.013 1187 421.827 1181.88 414.36C1176.76 406.893 1174.2 397.72 1174.2 386.84C1174.2 366.787 1180.6 351.213 1193.4 340.12C1206.2 328.813 1224.87 323.16 1249.4 323.16C1264.12 323.16 1276.81 325.72 1287.48 330.84C1298.15 335.747 1306.68 341.933 1313.08 349.4C1319.69 356.653 1324.07 364.013 1326.2 371.48L1307.32 378.84C1302.63 367.107 1294.95 358.04 1284.28 351.64C1273.83 345.027 1261.13 341.72 1246.2 341.72C1230.41 341.72 1217.83 345.56 1208.44 353.24C1199.27 360.92 1194.68 371.267 1194.68 384.28C1194.68 396.013 1198.31 404.867 1205.56 410.84C1212.81 416.6 1222.31 420.973 1234.04 423.96L1256.76 429.4C1279.37 434.733 1296.65 443.267 1308.6 455C1320.76 466.52 1326.84 478.893 1326.84 492.12C1326.84 503.427 1323.96 513.88 1318.2 523.48C1312.44 532.867 1303.8 540.44 1292.28 546.2C1280.76 551.96 1266.36 554.84 1249.08 554.84ZM1437.62 554.84C1422.26 554.84 1408.61 551.32 1396.66 544.28C1384.93 537.027 1375.65 527.107 1368.82 514.52C1362.21 501.933 1358.9 487.427 1358.9 471C1358.9 454.573 1362.21 440.067 1368.82 427.48C1375.43 414.893 1384.61 405.08 1396.34 398.04C1408.29 390.787 1421.83 387.16 1436.98 387.16C1452.34 387.16 1465.89 390.787 1477.62 398.04C1489.57 405.08 1498.85 414.893 1505.46 427.48C1512.07 440.067 1515.38 454.573 1515.38 471C1515.38 487.427 1512.07 501.933 1505.46 514.52C1498.85 527.107 1489.67 537.027 1477.94 544.28C1466.21 551.32 1452.77 554.84 1437.62 554.84ZM1437.62 537.24C1449.14 537.24 1459.27 534.467 1468.02 528.92C1476.77 523.16 1483.59 515.373 1488.5 505.56C1493.62 495.533 1496.18 484.013 1496.18 471C1496.18 457.987 1493.62 446.573 1488.5 436.76C1483.59 426.733 1476.66 418.947 1467.7 413.4C1458.74 407.64 1448.5 404.76 1436.98 404.76C1425.46 404.76 1415.22 407.64 1406.26 413.4C1397.51 418.947 1390.58 426.733 1385.46 436.76C1380.55 446.573 1378.1 457.987 1378.1 471C1378.1 484.013 1380.66 495.533 1385.78 505.56C1390.9 515.373 1397.94 523.16 1406.9 528.92C1415.86 534.467 1426.1 537.24 1437.62 537.24ZM1553.81 551V391H1571.73L1573.01 420.44V551H1553.81ZM1668.69 551V469.08H1687.89V551H1668.69ZM1668.69 469.08C1668.69 451.373 1666.56 437.933 1662.29 428.76C1658.24 419.587 1652.59 413.4 1645.33 410.2C1638.29 406.787 1630.29 405.08 1621.33 405.08C1606.19 405.08 1594.35 410.733 1585.81 422.04C1577.28 433.133 1573.01 448.707 1573.01 468.76H1561.17C1561.17 451.693 1563.63 437.08 1568.53 424.92C1573.44 412.76 1580.59 403.48 1589.97 397.08C1599.57 390.467 1611.2 387.16 1624.85 387.16C1637.23 387.16 1648.11 389.72 1657.49 394.84C1667.09 399.747 1674.56 407.64 1679.89 418.52C1685.44 429.4 1688.11 443.8 1687.89 461.72V469.08H1668.69ZM1732.28 551V391H1751.48V551H1732.28ZM1742.2 349.4C1738.79 349.4 1735.8 348.12 1733.24 345.56C1730.68 343 1729.4 340.013 1729.4 336.6C1729.4 332.973 1730.68 329.987 1733.24 327.64C1735.8 325.08 1738.79 323.8 1742.2 323.8C1745.83 323.8 1748.81 325.08 1751.16 327.64C1753.72 329.987 1755 332.973 1755 336.6C1755 340.013 1753.72 343 1751.16 345.56C1748.81 348.12 1745.83 349.4 1742.2 349.4ZM1901.79 554.84C1880.67 554.84 1861.9 549.933 1845.47 540.12C1829.26 530.093 1816.46 516.44 1807.07 499.16C1797.9 481.667 1793.31 461.613 1793.31 439C1793.31 416.387 1797.9 396.44 1807.07 379.16C1816.25 361.667 1828.94 348.013 1845.15 338.2C1861.37 328.173 1879.93 323.16 1900.83 323.16C1913.42 323.16 1925.69 325.507 1937.63 330.2C1949.79 334.68 1960.78 341.08 1970.59 349.4C1980.41 357.507 1987.98 366.893 1993.31 377.56L1976.35 388.12C1971.87 378.947 1965.58 370.947 1957.47 364.12C1949.58 357.08 1940.73 351.64 1930.91 347.8C1921.1 343.747 1911.07 341.72 1900.83 341.72C1883.98 341.72 1868.94 345.88 1855.71 354.2C1842.7 362.52 1832.46 374.04 1824.99 388.76C1817.53 403.267 1813.79 420.013 1813.79 439C1813.79 458.2 1817.53 475.16 1824.99 489.88C1832.46 504.6 1842.81 516.12 1856.03 524.44C1869.47 532.76 1884.73 536.92 1901.79 536.92C1912.25 536.92 1922.38 534.787 1932.19 530.52C1942.01 526.04 1950.86 519.96 1958.75 512.28C1966.86 504.6 1973.15 495.853 1977.63 486.04L1994.59 496.6C1989.05 507.907 1981.37 518.04 1971.55 527C1961.95 535.747 1951.07 542.573 1938.91 547.48C1926.75 552.387 1914.38 554.84 1901.79 554.84ZM2039.31 551V327H2059.79L2142.03 448.6L2223.95 327H2244.43V551H2223.95V360.92L2141.71 483.48L2059.79 361.56V551H2039.31ZM2378.46 554.84C2365.87 554.84 2354.78 553.56 2345.18 551C2335.79 548.227 2327.68 544.493 2320.86 539.8C2314.03 535.107 2308.38 529.88 2303.9 524.12C2299.63 518.36 2296.32 512.28 2293.98 505.88L2313.18 498.52C2316.8 508.547 2323.95 517.4 2334.62 525.08C2345.28 532.547 2358.3 536.28 2373.66 536.28C2393.28 536.28 2408.54 532.547 2419.42 525.08C2430.3 517.4 2435.74 507.373 2435.74 495C2435.74 483.053 2430.72 473.56 2420.7 466.52C2410.67 459.267 2397.66 453.613 2381.66 449.56L2358.94 443.8C2349.12 441.24 2339.95 437.613 2331.42 432.92C2323.1 428.013 2316.38 421.827 2311.26 414.36C2306.14 406.893 2303.58 397.72 2303.58 386.84C2303.58 366.787 2309.98 351.213 2322.78 340.12C2335.58 328.813 2354.24 323.16 2378.78 323.16C2393.5 323.16 2406.19 325.72 2416.86 330.84C2427.52 335.747 2436.06 341.933 2442.46 349.4C2449.07 356.653 2453.44 364.013 2455.58 371.48L2436.7 378.84C2432 367.107 2424.32 358.04 2413.66 351.64C2403.2 345.027 2390.51 341.72 2375.58 341.72C2359.79 341.72 2347.2 345.56 2337.82 353.24C2328.64 360.92 2324.06 371.267 2324.06 384.28C2324.06 396.013 2327.68 404.867 2334.94 410.84C2342.19 416.6 2351.68 420.973 2363.42 423.96L2386.14 429.4C2408.75 434.733 2426.03 443.267 2437.97 455C2450.14 466.52 2456.22 478.893 2456.22 492.12C2456.22 503.427 2453.34 513.88 2447.58 523.48C2441.82 532.867 2433.18 540.44 2421.66 546.2C2410.14 551.96 2395.74 554.84 2378.46 554.84Z" fill="white"/>
</svg>
